<?xml version="1.0" encoding="UTF-8"?>
<svg id="Layer_2" data-name="Layer 2" xmlns="http://www.w3.org/2000/svg" viewBox="0 0 393.15 412.11">
  <defs>
    <style>
      .cls-1 {
        stroke: #c0214b;
      }

      .cls-1, .cls-2 {
        fill: none;
        stroke-miterlimit: 10;
      }

      .cls-3 {
        fill: #36cce9;
      }

      .cls-3, .cls-4, .cls-5, .cls-6, .cls-7, .cls-8, .cls-9, .cls-10, .cls-11, .cls-12 {
        stroke-width: 0px;
      }

      .cls-4 {
        fill: #0a2961;
      }

      .cls-5 {
        fill: #154581;
      }

      .cls-6 {
        fill: #2396bb;
      }

      .cls-7 {
        fill: #c0214b;
      }

      .cls-8 {
        fill: #f14962;
      }

      .cls-9 {
        fill: #fff;
      }

      .cls-10 {
        fill: #fd9360;
      }

      .cls-11 {
        fill: #fd9461;
      }

      .cls-12 {
        fill: #051b57;
      }

      .cls-2 {
        stroke: #051b57;
        stroke-width: .25px;
      }
    </style>
  </defs>
  <g id="Layer_2-2" data-name="Layer 2">
    <g>
      <path class="cls-5" d="m318.26,0H74.88C33.7,0,0,33.7,0,74.88v262.34c0,41.19,33.7,74.88,74.88,74.88h243.38c41.19,0,74.88-33.7,74.88-74.88V74.88c0-41.19-33.7-74.88-74.88-74.88h0Z"/>
      <g>
        <path class="cls-9" d="m381.75,74.88v262.34c0,35.01-28.48,63.49-63.49,63.49H74.88c-35,0-63.48-28.48-63.48-63.49V74.88c0-35.01,28.48-63.49,63.48-63.49h243.38c35.01,0,63.49,28.48,63.49,63.49Z"/>
        <g>
          <g>
            <path class="cls-12" d="m301.46,213.22c-.1,0-.2-.02-.28-.03-.99-.21-.36-.11-1.71-1.53-2.21-2.3-5.5-1.24-5.53-1.84-.07-.68,4.57-2,7.54-2.52,6.3-1.11,7.05-.37,7.23-.11,1.01,1.45-4.92,6.04-7.24,6.04Z"/>
            <path class="cls-8" d="m292.57,203.73c-1.25,1.79-.24,4.85,1.37,6.09.03.6,3.32-.46,5.53,1.84,1.35,1.42.72,1.32,1.71,1.53.08.02.18.03.28.03l1.24,1.68c-1.04.63-1.74,1.29-2.18,1.95-.03.05-.07.11-.1.2-.26.44-.41.88-.49,1.33-.05.33-.06.65-.03.99.08,1.87.6,4.25,1.58,6.14.02.05.03.1.03.15l-1.53.28c-.31.07-.63,0-.9-.16-.57-.39-1.66-1.03-2.43-.98-2.43.16-6.48,3.17-9.33,3.96-3.78,1.03-6.89.55-6.23,1.35.86,1.07,2.67,2.28,11.53,8.37.65.46,1.81,1.12,2.72,1.63-1.16,1.3-2.05,2.03-3.34,3.47l-.33-.03c-1.47-.13-4.17-2.44-5.13-3.01-.31-.2-.68.07-.63.41.49,3.29,3.71,16.51.6,22.45-.37.72-1.07,1.38-2.21,1.82-.03.02-.07.03-.1.03-.77.29-1.68.5-2.69.63-.05.02-.08.02-.13.02-1.6.21-3.4.24-5.27.07-2.65-.23-5.39-.86-7.65-1.92-.05-.02-.08-.03-.13-.05-5.53-1.92-7.94-2.46-10.22-2.91h-.02s-.06-.02-.13-.02c-.2-.05-.54-.11-1.04-.21-.11-.03-.23-.05-.34-.08-.13-.02-.26-.05-.41-.08-.26-.07-.52-.11-.8-.18-.7-.16-1.51-.36-2.46-.6l-.67-92.27c1.07,1.03,4.35,3.58,9.93,7.62,2.85,2.03,4.53,6.27,6.66,7.2,3.48,1.51,5.78-.26,8.09,1.63,1.95,1.6,1.51,4.05,2.28,4.09.65,0,.44-2.56,1.4-11.69.03-.2.2-.34.39-.34,4.23.18,6.5.15,7.68.03.03,2.52.46,5.1,1.25,7.78,1.99,6.69,10.08,12.31,12.78,14.21.46.31.52,1.25-.49,1.43-2.51.46-8.07,1.87-9.65,4.15Z"/>
            <path class="cls-12" d="m294.58,232.11c.72.81,2.23,4.72,2.41,7.2.05.75-.78,1.25-1.43.9-.06-.03-.13-.08-.21-.11-.91-.5-2.07-1.17-2.72-1.63-8.86-6.09-10.66-7.29-11.53-8.37-.65-.8,2.46-.33,6.23-1.35,2.85-.78,6.9-3.79,9.33-3.96.77-.05,1.86.59,2.43.98.26.16.59.23.9.16l1.53-.28.08-.02c-.39,3.48-2.25,5.27-5.86,5.55-.8.07-1.33.73-1.16.93Z"/>
            <path class="cls-12" d="m301.3,177.24c-1.32.63-5.45,1.69-6.67,1.99-.15-.83-.26-1.73-.34-2.69,1.63.03,8.19.15,7.02.7Z"/>
            <path class="cls-10" d="m312.03,207.65c-.21.88-.6,1.76-1.22,2.51-2.28,2.69-5.23,3-8.11,4.74l-1.24-1.68c2.33,0,8.25-4.59,7.24-6.04-.18-.26-.93-.99-7.23.11-2.96.52-7.6,1.84-7.54,2.52-1.61-1.24-2.62-4.3-1.37-6.09,1.58-2.28,7.15-3.7,9.65-4.15,1.01-.18.94-1.12.49-1.43-2.7-1.9-10.79-7.52-12.78-14.21-.8-2.69-1.22-5.26-1.25-7.78.57-.07.88-.15,1.04-.23.08-.03.11-.08.13-.11,0-.08-.41-.29-1.16-.59.1-4.12,1.22-8.09,3.4-12.14.21-.05.39-.15.55-.29.21-.2.37-.46.47-.77.47-1.48-.24-4.1-1.5-5.99-1.86-2.8-5.06-4.31-8.66-5.05-4.07-6.01-2.75-11.17-3.91-20.38-.88-7.05-5.42-12.78-9.69-17.79.11,0,.23-.02.34-.02,4.72-.24,10.79.02,16.72.23h.02c.2.39.39.75.59,1.11h.36c7.65,13.72,13.63,28.47,11.36,43.45-.21,1.38-.6,2.95-1.06,4.57-1.38,4.88-3.43,10.42-3.43,13.8,0,.2,0,.39.02.59.08.96.2,1.86.34,2.69,1.48,8.29,6.3,10.69,13.41,18.52,2,2.21,4.7,7,3.99,9.9Z"/>
            <path class="cls-12" d="m293.13,162.02c-.1.31-.26.57-.47.77-.16.15-.34.24-.55.29-2.1.49-6.45-3.89-14.11-5.73-6.07-1.45-11.33-.57-21.85,1.17-1.46.24-2.78.49-3.96.73-5.23,1.04-7.6,1.87-7.78,1.4-.21-.59,2.88-2.85,7.75-5.06,3.16-1.45,7.08-2.88,11.31-3.81,1.73-.37,11.57-2.46,19.5-.8,3.6.73,6.8,2.25,8.66,5.05,1.25,1.89,1.97,4.51,1.5,5.99Z"/>
            <path class="cls-8" d="m292.1,163.08c-2.18,4.05-3.3,8.03-3.4,12.14-2.38-.96-8.14-2.73-14.76-3.17-5.97-.41-8.66-.13-13.33-1.48-4.43-1.29-7.36-2.98-8.37-3.37l-.05-7.94c1.17-.24,2.49-.49,3.96-.73,10.52-1.74,15.77-2.62,21.85-1.17,7.67,1.84,12.01,6.22,14.11,5.73Z"/>
            <path class="cls-10" d="m291.68,243.53l.33.03c-3.55,4.05,1.76,10.68-.68,16.49-1.73,4.12-4.85,4.69-6.66,5.14-.03.02-.07.03-.1.03l-.34.1-.02-.1s.07-.02.1-.03c1.14-.44,1.84-1.11,2.21-1.82,3.11-5.94-.11-19.16-.6-22.45-.05-.34.33-.6.63-.41.96.57,3.66,2.88,5.13,3.01Z"/>
            <path class="cls-7" d="m289.81,114.13h-2.41c-.21-.36-.41-.73-.62-1.09-.11,0-.21,0-.33-.02h-.02c-2.95-5.44-7.39-13.48-13.9-19.47-1.17-1.07-3.09-3.06-4.51-4.31,1.38-1.11,2.28-1.86,2.28-1.86,2.72,2.36,9.05,8.89,10,10.04,2.78,3.39,5.05,6.33,7.41,11.3,1.42,2.98,2.1,5.4,2.1,5.4Z"/>
            <path class="cls-12" d="m289.85,175.81s-.05.08-.13.11c-.16.08-.47.16-1.04.23-1.19.11-3.45.15-7.68-.03-.2,0-.36.15-.39.34-.96,9.13-.75,11.69-1.4,11.69-.77-.03-.33-2.49-2.28-4.09-2.31-1.89-4.61-.11-8.09-1.63-2.13-.93-3.81-5.16-6.66-7.2-5.58-4.04-8.86-6.59-9.93-7.62l-.02-.42c1.01.39,3.94,2.08,8.37,3.37,4.67,1.35,7.36,1.07,13.33,1.48,6.63.44,12.39,2.21,14.76,3.17.75.29,1.16.5,1.16.59Z"/>
            <path class="cls-7" d="m287.4,114.13h-.36c-.2-.36-.39-.72-.59-1.11.11.02.21.02.33.02.21.36.41.73.62,1.09Z"/>
            <path class="cls-6" d="m286.44,113.02c-5.93-.21-12-.47-16.72-.23-.11,0-.23.02-.34.02l-.02-.02c-15.61.77-25.23,3.65-31.34,7.42-1.2-2.25-5.21-4.51-6.17-5.34-2.21-1.94-8.3-4.72-8.97-6.12,1.73-.9,3.13-1.45,4.04-1.84,11.43-4.7,16.41-2.1,29.33-9.25,3.37-1.86,8.74-6.01,11.77-8.43,1.42,1.25,3.34,3.24,4.51,4.31,6.51,5.99,10.96,14.03,13.9,19.47Z"/>
            <path class="cls-8" d="m282.97,150.98c-7.93-1.66-17.78.42-19.5.8-4.23.93-8.16,2.36-11.31,3.81l-.18-25.1s-13.72,2.46-14.23,20.28c-.26,9.51,1.94,13.97-2.34,20.82-4.49,7.18-13.71,9.51-15.95,10.08-2.72.67-4.96,1.25-6.9,1.24.75-4.3-1.38-9.88.86-14.28.8-1.53,2.15-1.95,3.68-2.05.23,0,.44-.02.67-.02.8,0,1.61.05,2.39.03,1.89,0,3.66-.26,4.62-2.2,3.6-7.29-1.2-23.67,4.98-35.18,1.66-3.09,4.15-6.17,8.35-8.84,6.04-3.81,15.61-6.76,31.27-7.57,4.26,5.01,8.81,10.74,9.69,17.79,1.16,9.21-.16,14.37,3.91,20.38Z"/>
            <path class="cls-12" d="m200.32,137.31c.37-1.77.83-3.6,1.76-6.02,5.13-13.38,16.34-20.1,19.78-21.99.36-.2.7-.37,1.03-.54,1.73-.9,3.13-1.45,4.04-1.84,11.43-4.7,16.41-2.1,29.33-9.25,3.37-1.86,8.74-6.01,11.77-8.43,1.38-1.11,2.28-1.86,2.28-1.86-.26-.23-.49-.41-.67-.55-4.82-3.76-24.82-16.08-51.52-19.22-6.1,8.48-13.54,13.79-18.48,16.05-1.6.75-2.83,1.17-4.05,1.55,1.76-.33,3.45.88,3.76,2.64.11.68.21,1.33.28,1.95.73,6.61-1.47,9.44-4.38,12.36-.15.15-.29.29-.44.46-.29.28-.57.59-.85.9-.31.36-.62.7-.96,1.04-2.85,3.11-5.58,5.18-7.28,6.46-.1.07-.18.13-.28.2l.29,17.35c.02,1.73-.67,3.4-1.9,4.59l-21.16,20.62c1.17,1.74,1.86,3.86,1.86,6.1,0,3.03-1.24,5.8-3.22,7.78-1.99,1.99-4.72,3.22-7.76,3.22-6.07,0-11-4.93-11-11s4.93-11,11-11c1.45,0,2.82.28,4.07.78.08-.11.18-.23.29-.33l21.32-20.77-.31-18.1c-.02-1.5.63-2.9,1.81-3.83.31-.24.67-.5,1.06-.81,1.63-1.24,4.02-3.04,6.53-5.78.26-.26.5-.54.75-.81.34-.41.7-.77,1.04-1.12.18-.18.36-.36.54-.54,1.87-1.89,3-3,2.51-7.08-.05-.47-.11-.98-.21-1.51-.26-1.5.55-2.95,1.9-3.52-.41.11-.85.24-1.29.37,0,.15-.57.73-1.09,1.92-.52,1.19-.65.99-7.41,6.46-6.74,5.47-8.19,9.41-13.67,16.41-11.93,15.2-16.52,11.05-25.23,23.42-1.14,1.63-2.08,3.13-2.86,4.54,1.25-1.2,3.24-1.2,4.49,0,1.3,1.25,1.33,3.3.1,4.61l-7.18,7.81c-.41.42-.68.94-.8,1.51-.03.2-.05.39-.05.59l-.1,6.74-.2,13.85c-.03,1.97.2,3.96.72,5.86.24.91.47,1.53.72,2.18.67,1.74,1.58,3.39,2.75,4.85,1.06,1.32,2.43,3.06,4.02,5.06,7.47,9.43,19.58,24.69,23.49,29.61,1.14,1.45,2.49,5.19.52,6.51-2.6,1.74-5.67-.55-7.42-1.74-2.75-1.84-2.85-2.2-7.98-8.24-2.43-2.87-2.28-2.78-7.86-9.47-.2-.24-.39-.47-.59-.7-3.94-4.69-6.15-6.9-8.87-10.87-1.97-2.87-3.39-5.36-4.25-6.98-.67-1.27-1.38-5.7-1.48-7.88v-.02c-.08-.55-.13-1.11-.13-1.66l.13-22.76c-.55.6-1.14,1.2-1.77,1.82-5.06,4.88-8.04,7.59-11.85,9.12l-2,.24c.08.85.21,1.69.37,2.52,2.1,11.13,8.87,20.93,13.8,26.27,10.26,11.12,16.6,19.42,20.19,29.28,1.22,3.35,4.2,11.87,2.03,25.13-1.68,10.35-6.38,18.75-10.91,24.76-1.71,2.87-3.92,4.95-6.46,7.39-1.84,1.81-3.16,2.87-3.48,3.13-10.94,8.6-16.13,12.81-25.33,19.99-.7.55-1.14,1.37-1.22,2.26v.15l-.39,6.12s17.68.2,26.29-.13h.11c.02-1.53.18-6.63,2.08-9.49,3.34-5,11.09-11.18,14.1-14.52,6.3-6.95,11.39-11.75,16.69-22.53.47-.94.9-1.87,1.3-2.78,7.86-17.35,5.75-26.35,5.75-26.35l59.77,33.22s-.67,1.87-1.63,4.93c1.56-3.61,3.7-7.16,6.74-10.22,7.46-7.5,19.01-6.84,20.46-6.72-.2-.05-.54-.11-1.04-.21-.11-.03-.23-.05-.34-.08-.13-.02-.26-.05-.41-.08-.26-.07-.52-.11-.8-.18-.7-.16-1.51-.36-2.46-.6-7.37-1.86-21.6-6.19-35.63-14.6-6.54-3.92-10.21-10.32-10.56-14.67-1.07-12.81,1.43-24.63-7.62-33.57l-.39-.29c-2.93,3.68-7.46,6.04-12.53,6.04-6.07,0-11.36-3.39-14.08-8.38-.05-.08-.1-.18-.13-.26-.5-.96-.91-1.97-1.2-3.03-.39-1.38-.6-2.83-.6-4.35,0-8.77,7.08-15.92,15.82-16.02h.2c5.31,0,9.98,2.57,12.91,6.51.36-3.04.57-6.8.46-11.51-.26-11.12-.33-17.69,0-22.38.16-2.39.41-4.3.78-6.07Zm-2.26-24.86c-.44.44-.68,1.03-.7,1.64l-.41,20.04-.2,9.08c-.05,2.36-.99,4.56-2.67,6.2l-28.41,27.74c-.63.62-1.45.93-2.28.93s-1.69-.33-2.33-.98c-1.25-1.29-1.22-3.35.06-4.61l2.51-2.46,25.88-25.28c.46-.44.72-1.04.72-1.68.02-.86.05-1.73.07-2.6.02-.94.03-1.89.05-2.83.02-.63-.29-3.11.16-3.48l-.08-.03c.18-8.56.41-20.17.41-20.17.05-2.3.96-4.46,2.57-6.09l3.32-3.35,10.39-10.5c1.27-1.29,3.32-1.29,4.61-.03,1.27,1.27,1.29,3.34.02,4.61l-13.69,13.85Z"/>
            <path class="cls-8" d="m269.36,112.79l.02.02c-15.66.81-25.23,3.76-31.27,7.57-.02-.07-.03-.11-.08-.16,6.1-3.78,15.72-6.66,31.34-7.42Z"/>
            <path class="cls-10" d="m252.92,259.89c-7.37-1.86-21.6-6.19-35.63-14.6-6.54-3.92-10.21-10.32-10.56-14.67-1.07-12.81,1.43-24.63-7.62-33.57v-.02l-.34-.34s-.03.05-.05.07l-13.22-9.73.49-16.26h.2c5.31,0,9.98,2.57,12.91,6.51v.02c.88,1.16,1.24,1.56,1.95,2.95.78,1.55.77,3.39.78,5.11.02.55-.31,2.13,0,2.57.29.44,1.07.37,1.55.41,2.57.23,5.63.03,7.54-1.95.94-.99,1.43-2.17,1.64-3.47,1.94.02,4.18-.57,6.9-1.24,2.25-.57,11.46-2.9,15.95-10.08,4.28-6.85,2.08-11.31,2.34-20.82.5-17.82,14.23-20.28,14.23-20.28l.18,25.1c-4.87,2.21-7.96,4.48-7.75,5.06.18.47,2.56-.36,7.78-1.4l.05,7.94c-.2-.08-.33-.1-.37-.07-.05.03.08.21.39.49l.67,92.27Z"/>
            <path class="cls-12" d="m252.25,167.62c-.31-.28-.44-.46-.39-.49.05-.03.18-.02.37.07l.02.42Z"/>
            <path class="cls-6" d="m239.23,340.71l-21.99-.62c-2.65-3.34-6.45-8.35-6.72-16.93-.5-15.81-1.92-19.81-6.48-28.28-3.74-6.93-8.87-11.61-16.96-17.73-5.76-4.36-15.86-9.93-20.19-10.97h-.02c7.86-17.35,5.75-26.35,5.75-26.35l60.59,33.43s-1.12,1.66-2.44,4.72c-2.77,6.4-3.74,13.01-4.7,17.52-.05.23-.1.47-.15.7-.1.46-.21.9-.31,1.3-5.68,21.86,4.23,37.67,13.25,42.91t.02.02c.23.18.36.28.36.28Z"/>
            <path class="cls-8" d="m238.11,120.38c-4.2,2.67-6.69,5.75-8.35,8.84-6.19,11.51-1.38,27.88-4.98,35.18-.96,1.94-2.73,2.2-4.62,2.2,1.76-.03,3.37-.39,4.26-2.2,3.6-7.29-1.2-23.67,4.98-35.18,1.69-3.16,4.26-6.32,8.63-9,.05.05.07.1.08.16Z"/>
            <path class="cls-3" d="m238.02,120.22c-4.36,2.69-6.93,5.84-8.63,9-6.19,11.51-1.38,27.88-4.98,35.18-.9,1.81-2.51,2.16-4.26,2.2-.78.02-1.6-.03-2.39-.03-.23,0-.44.02-.67.02-1.68.03-3.19.37-4.04,2.05-2.25,4.4-.11,9.98-.86,14.28h.36c-.21,1.3-.7,2.47-1.64,3.47-1.9,1.99-4.96,2.18-7.54,1.95-.47-.03-1.25.03-1.55-.41-.31-.44.02-2.02,0-2.57-.02-1.73,0-3.56-.78-5.11-.72-1.38-1.07-1.79-1.95-2.95v-.02c.36-3.04.57-6.8.46-11.51-.26-11.12-.33-17.69,0-22.38.16-2.39.41-4.3.78-6.07.37-1.77.83-3.6,1.76-6.02,5.13-13.38,16.34-20.1,19.78-21.99.36-.2.7-.37,1.03-.54.67,1.4,6.76,4.18,8.97,6.12.96.83,4.96,3.09,6.17,5.34Z"/>
            <path class="cls-8" d="m217.09,166.58c-1.53.1-2.88.52-3.68,2.05-2.25,4.4-.11,9.98-.86,14.28h-.36c.75-4.3-1.38-9.88.86-14.28.85-1.68,2.36-2.02,4.04-2.05Z"/>
            <path class="cls-3" d="m217.24,340.09l-14.23-.41c-.91-.65-2.59-1.81-4.93-3.3-6.45-4.48-18.79-12.34-30.26-15.42-2.25-.6-4.49-1.14-6.71-1.6-8.9-2.57-18.59-4.22-28.41-3.86.02-1.53.18-6.63,2.08-9.49,3.34-5,11.09-11.18,14.1-14.52,6.3-6.95,11.39-11.75,16.69-22.53.47-.94.9-1.87,1.3-2.78h.02c4.33,1.04,14.42,6.61,20.19,10.97,8.09,6.12,13.22,10.79,16.96,17.73,4.56,8.46,5.97,12.47,6.48,28.28.28,8.58,4.07,13.59,6.72,16.93Z"/>
            <path class="cls-3" d="m211.75,98.6l-13.69,13.85c-.44.44-.68,1.03-.7,1.64l-.41,20.04h-2.82c-.65,0-3.13-.41-3.61.03l-.08-.03c.18-8.56.41-20.17.41-20.17.05-2.3.96-4.46,2.57-6.09l3.32-3.35,10.39-10.5c1.27-1.29,3.32-1.29,4.61-.03,1.27,1.27,1.29,3.34.02,4.61Z"/>
            <path class="cls-5" d="m218.12,67.61c-6.1,8.48-13.54,13.79-18.48,16.05-1.6.75-2.83,1.17-4.05,1.55-.26.05-.52.13-.75.24-.41.11-.85.24-1.29.37,0-.11-.34.05-1.33.42-.2.07-.39.13-.6.21-.44.13-.91.31-1.42.5-.1.03-.2.07-.29.1-5.6,1.87-12.65,4.49-21.26,12.31-7.72,7.02-10.29,11.79-18.54,18.25-5.83,4.54-11.25,7.41-14.91,9.12h-.02c-1.86-3.71-4.44-12.37,1.35-26.11,1.55-3.68,4.1-7.1,7.28-10.22l.03-.03c12.96-12.76,36.45-20.75,46.43-22.3,9.8-1.51,19.18-1.47,27.85-.46Z"/>
            <path class="cls-3" d="m195.24,102.15c-.15.15-.29.29-.44.46l-4.7-4.51c.18-.18.36-.36.54-.54,1.87-1.89,3-3,2.51-7.08l6.48-.68c.73,6.61-1.47,9.44-4.38,12.36Z"/>
            <path class="cls-7" d="m199.62,89.79l-6.48.68c-.05-.47-.11-.98-.21-1.51-.26-1.5.55-2.95,1.9-3.52.26-.08.5-.16.75-.24,1.76-.33,3.45.88,3.76,2.64.11.68.21,1.33.28,1.95Z"/>
            <path class="cls-12" d="m199.1,197.03v.02l-.39-.29s.03-.05.05-.07l.34.34Z"/>
            <path class="cls-7" d="m198.71,196.76c-2.93,3.68-7.46,6.04-12.53,6.04-6.07,0-11.36-3.39-14.08-8.38-.05-.08-.1-.18-.13-.26-.44-.93-.85-1.94-1.2-3.03-.39-1.38-.6-2.83-.6-4.35,0-8.77,7.08-15.92,15.82-16.02l-.49,16.26,13.22,9.73Z"/>
            <path class="cls-7" d="m196.95,134.14l-.2,9.08c-.05,2.36-.99,4.56-2.67,6.2l-28.41,27.74c-.63.62-1.45.93-2.28.93s-1.69-.33-2.33-.98c-1.25-1.29-1.22-3.35.06-4.61l2.51-2.46,25.88-25.28c.46-.44.72-1.04.72-1.68.02-.86.05-1.73.07-2.6.02-.94.03-1.89.05-2.83.02-.63-.29-3.11.16-3.48.49-.44,2.96-.03,3.61-.03h2.82Z"/>
            <path class="cls-7" d="m195.59,85.2c-.24.08-.49.16-.75.24.23-.11.49-.2.75-.24Z"/>
            <path class="cls-7" d="m194.8,102.6c-.29.28-.57.59-.85.9-.31.36-.62.7-.96,1.04l-4.69-4.51c.26-.26.5-.54.75-.81.34-.41.7-.77,1.04-1.12l4.7,4.51Z"/>
            <path class="cls-5" d="m193.55,85.82c-.42.13-.86.28-1.33.42.99-.37,1.33-.54,1.33-.42Z"/>
            <path class="cls-9" d="m193,104.54l-4.69-4.51c-2.51,2.73-4.9,4.54-6.53,5.78-.39.31-.75.57-1.06.81-1.17.93-1.82,2.33-1.81,3.83l.31,18.1-21.32,20.77c-.11.1-.21.21-.29.33-1.25-.5-2.62-.78-4.07-.78-6.07,0-11,4.93-11,11s4.93,11,11,11c3.04,0,5.78-1.24,7.76-3.22,1.99-1.99,3.22-4.75,3.22-7.78,0-2.25-.68-4.36-1.86-6.1l21.16-20.62c1.24-1.19,1.92-2.87,1.9-4.59l-.29-17.35c.1-.07.18-.13.28-.2,1.69-1.29,4.43-3.35,7.28-6.46Zm-39.62,61.53c-3.27,0-5.93-2.65-5.93-5.93s2.65-5.91,5.93-5.91,5.91,2.65,5.91,5.91-2.65,5.93-5.91,5.93Z"/>
            <path class="cls-4" d="m193.55,85.82c0,.15-.57.73-1.09,1.92-.52,1.19-.65.99-7.41,6.46-6.74,5.47-8.19,9.41-13.67,16.41-11.93,15.2-16.52,11.05-25.23,23.42-1.14,1.63-2.08,3.13-2.86,4.54-.05.03-.08.07-.11.1l-7.16,7.81c-1.71,1.77-2.65,4.1-2.67,6.56l-.02,4.4c-.55.6-1.14,1.2-1.77,1.82-5.06,4.88-8.04,7.59-11.85,9.12l-2,.24c-.46-3.43-.39-6.97.33-10.52.16-.8.36-1.61.59-2.41,2.8-9.64,9.51-12.81,16.38-18.33,1.16-.94,1.69-2.51,1.86-4.12.16-1.53-.1-3.06-.67-4.48-.18-.47-.41-.94-.65-1.4-.11-.2-.23-.41-.34-.65h.02c3.66-1.71,9.08-4.57,14.91-9.12,8.25-6.46,10.82-11.23,18.54-18.25,8.61-7.81,15.66-10.43,21.26-12.31.1-.03.2-.07.29-.1.55-.18,1.03-.36,1.42-.5.21-.08.41-.15.6-.21.47-.15.91-.29,1.33-.42Z"/>
            <path class="cls-12" d="m191.61,86.46c-.39.15-.86.33-1.42.5.5-.2.98-.37,1.42-.5Z"/>
            <path class="cls-6" d="m171.77,227.77c-2.6,1.74-5.67-.55-7.42-1.74-2.75-1.84-2.85-2.2-7.98-8.24-2.43-2.87-2.28-2.78-7.86-9.47-.2-.24-.39-.47-.59-.7l-.16-15.97c7.47,9.43,19.58,24.69,23.49,29.61,1.14,1.45,2.49,5.19.52,6.51Z"/>
            <path class="cls-7" d="m154.09,251.84c-1.68,10.35-6.38,18.75-10.91,24.76-2.36,3.14-4.67,5.63-6.46,7.39-1.84,1.81-3.16,2.87-3.48,3.13-10.94,8.6-16.13,12.81-25.33,19.99-.7.55-1.14,1.37-1.22,2.26.02-.49.03-.99.05-1.48.18-5.16.9-10.39,3.34-13.33,7.29-8.77,14.96-16.36,20.61-23.82,11.12-14.67,8.2-33.44,7.21-38.48-2.17-10.99-16.82-31.42-19.39-35.81-.24-.44-.37-.94-.37-1.45l-.07-23.85c2.1,11.13,8.87,20.93,13.8,26.27,10.26,11.12,16.6,19.42,20.19,29.28,1.22,3.35,4.2,11.87,2.03,25.13Z"/>
            <path class="cls-3" d="m147.76,191.65l.16,15.97c-3.94-4.69-6.15-6.9-8.87-10.87-1.97-2.87-3.39-5.36-4.25-6.98-.67-1.27-1.38-5.7-1.48-7.88v-.02c-.08-.55-.13-1.11-.13-1.66l.13-22.76.02-4.4c.02-2.46.96-4.79,2.67-6.56l7.16-7.81s.06-.07.11-.1c1.25-1.2,3.24-1.2,4.49,0,1.3,1.25,1.33,3.3.1,4.61l-7.18,7.81c-.41.42-.68.94-.8,1.51-.03.2-.05.39-.05.59l-.1,6.74-.2,13.85c-.03,1.97.2,3.96.72,5.86.24.91.47,1.53.72,2.18.67,1.74,1.58,3.39,2.75,4.85,1.06,1.32,2.43,3.06,4.02,5.06Z"/>
            <path class="cls-10" d="m130.68,270.74c-5.65,7.46-13.32,15.04-20.61,23.82-2.44,2.95-3.16,8.17-3.34,13.33l-.39-.02c-1.16-1.16-3.83-4.17-4.44-8.74-.77-5.62,2.88-9.96,6.67-14.99,9.31-12.31,13.97-18.48,16.16-23.59,3.5-8.09,3.53-16.1,2.9-21.73.73-1.12.72-2.65-.16-3.78l-.54-.7c-.23-1.11-.44-1.99-.57-2.56-.78-3.48-4.31-11.15-15.56-24.63-4.07-4.87-14.85-19.24-17.12-22.89,0,0-2.2-2.64-2.2-5.52v-46.47c0-2.62,2.13-4.75,4.75-4.75h22.33l.05.03c-.2.49-.37.88-.49,1.16-.13.31-.2.62-.2.94l.08,28.45c-.72,3.55-.78,7.08-.33,10.52.08.85.21,1.69.37,2.52l.07,23.85c0,.5.13,1.01.37,1.45,2.57,4.4,17.22,24.82,19.39,35.81.99,5.05,3.91,23.82-7.21,38.48Z"/>
            <path class="cls-4" d="m143.19,276.6c-1.71,2.87-3.92,4.95-6.46,7.39,1.79-1.76,4.1-4.25,6.46-7.39Z"/>
            <path class="cls-7" d="m136.17,128.78c.57,1.42.83,2.95.67,4.48-.16,1.61-.7,3.17-1.86,4.12-6.87,5.52-13.58,8.69-16.38,18.33-.23.8-.42,1.61-.59,2.41l-.08-28.45c0-.33.06-.63.2-.94.11-.28.29-.67.49-1.16h.02c1.04-2.47,3.17-7.44,5.42-12.57,4.49-10.24,14.91-20.69,19.75-24.6-3.17,3.13-5.73,6.54-7.28,10.22-5.8,13.74-3.21,22.4-1.35,26.11.11.24.23.46.34.65.24.46.47.93.65,1.4Z"/>
            <path class="cls-3" d="m127.48,235.05c.88,1.12.9,2.65.16,3.78-.2-1.74-.46-3.26-.7-4.48l.54.7Z"/>
            <path class="cls-3" d="m127.64,238.82c-.2.29-.44.57-.73.8-1.38,1.07-3.39.85-4.51-.5l-50.35-61.04c-3.61-4.61,3.09-10.03,6.84-5.49l48.05,61.76c.24,1.22.5,2.73.7,4.48Z"/>
          </g>
          <path class="cls-2" d="m252.25,167.62c1.07,1.03,4.35,3.58,9.93,7.62,2.85,2.03,4.53,6.27,6.66,7.2,3.48,1.51,5.78-.26,8.09,1.63,1.95,1.6,1.51,4.05,2.28,4.09.65,0,.44-2.56,1.4-11.69.03-.2.2-.34.39-.34,4.23.18,6.5.15,7.68.03.57-.07.88-.15,1.04-.23.08-.03.11-.08.13-.11,0-.08-.41-.29-1.16-.59-2.38-.96-8.14-2.73-14.76-3.17-5.97-.41-8.66-.13-13.33-1.48-4.43-1.29-7.36-2.98-8.37-3.37-.2-.08-.33-.1-.37-.07s.08.21.39.49Z"/>
        </g>
      </g>
      <path class="cls-7" d="m239.03,72.24s-3.62,5.94-8.73,9.12c-4.75,2.96-13.49,6.45-15.36,9.73-1.29,2.26.71,4.65,3.13,5.29,2.12.56,7.12-.41,19.87-8.44,8.83-5.57,13.02-11.56,13.02-11.56l-11.93-4.14Z"/>
      <circle class="cls-11" cx="195.41" cy="210.54" r="5.96"/>
      <circle class="cls-11" cx="102.86" cy="244.6" r="14.47"/>
      <circle class="cls-7" cx="91.37" cy="269.89" r="2.97"/>
      <circle class="cls-3" cx="107.29" cy="268.1" r="3.98"/>
      <circle class="cls-10" cx="99.22" cy="281.55" r="3.98"/>
      <circle class="cls-8" cx="90.52" cy="119.57" r="2.4"/>
      <circle class="cls-8" cx="85.77" cy="131.98" r="2.16"/>
      <circle class="cls-8" cx="82.23" cy="144.73" r="2.06"/>
      <path class="cls-7" d="m124.27,101.35c0,7.1-5.76,12.84-12.86,12.84-2.95,0-5.66-.99-7.85-2.67.77.16,1.56.26,2.39.26,5.97,0,10.83-4.85,10.83-10.83s-4.85-10.84-10.83-10.84c-.29,0-.57.02-.85.03,1.87-1.04,4.02-1.64,6.3-1.64,7.1,0,12.86,5.75,12.86,12.84Z"/>
      <path class="cls-6" d="m116.78,100.96c0,5.62-4.28,10.24-9.75,10.78v-21.57c5.47.54,9.75,5.16,9.75,10.79Z"/>
      <path class="cls-3" d="m107.03,90.17v21.57c-.36.03-.72.05-1.07.05-.83,0-1.63-.1-2.39-.26-4.83-1.09-8.45-5.42-8.45-10.56,0-5.7,4.4-10.37,9.99-10.81.28-.02.55-.03.85-.03.36,0,.72.02,1.07.05Z"/>
      <circle class="cls-11" cx="125.02" cy="81.86" r="3.05"/>
      <circle class="cls-8" cx="132.18" cy="92.11" r="1.99"/>
      <circle class="cls-11" cx="141.02" cy="79.23" r="3.7"/>
      <circle class="cls-11" cx="181.35" cy="90.63" r="7.2"/>
      <circle class="cls-10" cx="164.96" cy="113.06" r="7.01"/>
      <circle class="cls-7" cx="210.39" cy="108.95" r="4.14"/>
      <circle class="cls-7" cx="183.16" cy="140.95" r="3.63"/>
      <circle class="cls-11" cx="153.21" cy="160.09" r="5.78"/>
      <path class="cls-3" d="m278.74,175.96c0,3.25-2.62,5.42-5.87,5.42s-6.08-2.71-6.08-5.96c3.76.03,7.87.57,11.95.54Z"/>
      <path class="cls-8" d="m194.77,173.21l-9.06,8.89.22-11.36c3.24,0,6.25.91,8.84,2.47Z"/>
      <g>
        <path class="cls-8" d="m77.41,211.52v21.08c-5.83,0-10.53-4.72-10.53-10.53s4.7-10.55,10.53-10.55Z"/>
        <path class="cls-10" d="m87.95,222.07c0,5.81-4.72,10.53-10.55,10.53v-21.08c5.83,0,10.55,4.72,10.55,10.55Z"/>
      </g>
      <line class="cls-1" x1="77.41" y1="211.52" x2="77.41" y2="232.6"/>
      <circle class="cls-12" cx="185.65" cy="187.02" r="11.69"/>
      <path class="cls-12" d="m204.68,189.06c-.92,0-1.82-.05-2.64-.09l-.43-.05.08-2.03.46.06c2.48.13,6.24.33,7.82-1.32.73-.77,1.18-1.72,1.38-2.93.27-1.57.13-3.37-.02-5.27-.25-3.13-.51-6.38.98-9.3,1.4-2.75,4.25-2.67,6.54-2.61,2.45.06,4,.03,4.82-1.62,1.45-2.94,1.43-7.82,1.42-12.98-.02-7.25-.05-15.47,3.58-22.22,3.54-6.59,11.63-15.52,40.81-16.96,4.02-.21,12.55.39,15.76.61.6.04.8.06.9.06l.92,1.73s-13.59-.57-17.48-.37c-28.15,1.39-35.81,9.73-39.12,15.89-3.39,6.3-3.36,14.25-3.34,21.25.02,5.65.03,10.52-1.63,13.89-1.43,2.9-4.35,2.82-6.7,2.75-2.39-.06-3.89-.03-4.67,1.5-1.23,2.41-1,5.36-.77,8.21.16,1.95.32,3.96,0,5.77-.26,1.61-.89,2.92-1.91,3.99-1.62,1.69-4.27,2.04-6.75,2.04Z"/>
      <g>
        <path class="cls-7" d="m179.21,179.62v14.81c-2.08-1.77-3.39-4.44-3.39-7.41s1.3-5.62,3.39-7.41Z"/>
        <path class="cls-8" d="m183.2,177.52v19.03c-1.5-.37-2.87-1.11-3.99-2.12v-14.81c1.12-.99,2.49-1.73,3.99-2.1Z"/>
        <path class="cls-6" d="m188.23,177.55v18.95c-.83.24-1.69.36-2.59.36-.85,0-1.66-.11-2.44-.31v-19.03c.78-.21,1.6-.33,2.44-.33.9,0,1.76.11,2.59.36Z"/>
        <path class="cls-3" d="m195.47,187.02c0,4.54-3.06,8.35-7.24,9.47v-18.95c4.18,1.12,7.24,4.95,7.24,9.47Z"/>
      </g>
    </g>
  </g>
</svg>