<svg xmlns="http://www.w3.org/2000/svg" version="1.1" style="font-family:Lato, &#x27;Helvetica Neue&#x27;, Helvetica, Arial, &#x27;Liberation Sans&#x27;, sans-serif;font-size:18px;background-color:#ffffff;text-rendering:geometricPrecision;-webkit-font-smoothing:antialiased" width="850" height="600" viewBox="0 0 850 600"><defs><style>@import url(https://ourworldindata.org/fonts.css)</style></defs><defs><pattern id="noDataPattern" patternUnits="userSpaceOnUse" width="4" height="4" patternTransform="rotate(-45 2 2)"><path d="M -1,2 l 6,0" stroke="#ccc" stroke-width="0.7"></path></pattern></defs><g id="header" class="HeaderView"><g id="logo" transform="translate(769, 16) scale(1)"><svg className="owidLogo" xmlns="http://www.w3.org/2000/svg" width="65" height="36" viewBox="0 0 65 36"  fill="none"><path fill="#002147" d="M0 0h64.8v36H0z"/><path fill="#CE261E" d="M0 33.3h64.8V36H0z"/><path fill="#fff" d="M13.796 10.575c0 .636-.106 1.226-.318 1.77a4.193 4.193 0 0 1-.894 1.404 4.084 4.084 0 0 1-1.386.93c-.54.22-1.138.33-1.794.33-.656 0-1.256-.11-1.8-.33a4.149 4.149 0 0 1-1.392-.93 4.193 4.193 0 0 1-.894-1.404A4.833 4.833 0 0 1 5 10.575c0-.636.106-1.224.318-1.764a4.18 4.18 0 0 1 .894-1.41 4.076 4.076 0 0 1 1.392-.924 4.684 4.684 0 0 1 1.8-.336c.656 0 1.254.112 1.794.336.54.224 1.002.534 1.386.93.384.392.682.86.894 1.404.212.54.318 1.128.318 1.764Zm-1.656 0c0-.476-.064-.902-.192-1.278a2.671 2.671 0 0 0-.54-.966 2.332 2.332 0 0 0-.864-.606 2.94 2.94 0 0 0-1.14-.21c-.424 0-.806.07-1.146.21-.34.14-.63.342-.87.606a2.742 2.742 0 0 0-.546.966 3.955 3.955 0 0 0-.192 1.278c0 .476.064.904.192 1.284.128.376.31.696.546.96.24.26.53.46.87.6.34.14.722.21 1.146.21.424 0 .804-.07 1.14-.21.34-.14.628-.34.864-.6.236-.264.416-.584.54-.96a4.01 4.01 0 0 0 .192-1.284ZM16.104 8.757v3.912c0 .376.086.668.258.876.176.204.438.306.786.306.256 0 .496-.056.72-.168a2.58 2.58 0 0 0 .636-.474V8.757h1.482v6.156h-.906c-.192 0-.318-.09-.378-.27l-.102-.492a4.65 4.65 0 0 1-.396.354 2.577 2.577 0 0 1-.438.27 2.35 2.35 0 0 1-.498.168 2.345 2.345 0 0 1-.57.066c-.336 0-.634-.056-.894-.168a1.821 1.821 0 0 1-.648-.486 2.157 2.157 0 0 1-.402-.738 3.233 3.233 0 0 1-.132-.948V8.757h1.482ZM21.328 14.913V8.757h.87c.152 0 .258.028.318.084.06.056.1.152.12.288l.09.744c.22-.38.478-.68.774-.9.296-.22.628-.33.996-.33.304 0 .556.07.756.21l-.192 1.11c-.012.072-.038.124-.078.156a.278.278 0 0 1-.162.042 1.01 1.01 0 0 1-.246-.042 1.646 1.646 0 0 0-.414-.042c-.308 0-.572.086-.792.258-.22.168-.406.416-.558.744v3.834h-1.482ZM27.347 6.237h1.356a.57.57 0 0 1 .348.102c.096.064.16.152.192.264l1.476 5.19c.036.128.068.268.096.42.032.148.062.306.09.474a5.968 5.968 0 0 1 .228-.894l1.704-5.19a.575.575 0 0 1 .186-.252.543.543 0 0 1 .348-.114h.474a.57.57 0 0 1 .348.102.497.497 0 0 1 .192.264l1.692 5.19c.088.256.164.54.228.852.028-.156.056-.306.084-.45.032-.144.064-.278.096-.402l1.476-5.19c.028-.1.09-.186.186-.258a.563.563 0 0 1 .348-.108h1.266l-2.694 8.676h-1.458l-1.896-5.928-.078-.246a9.504 9.504 0 0 1-.072-.282c-.024.1-.05.194-.078.282-.024.088-.048.17-.072.246l-1.914 5.928H30.04l-2.694-8.676ZM42.771 8.661c.46 0 .876.074 1.248.222.376.148.696.358.96.63s.468.604.612.996c.144.392.216.83.216 1.314 0 .488-.072.928-.216 1.32a2.85 2.85 0 0 1-.612 1.002 2.653 2.653 0 0 1-.96.636 3.35 3.35 0 0 1-1.248.222c-.46 0-.878-.074-1.254-.222a2.712 2.712 0 0 1-.966-.636 2.922 2.922 0 0 1-.618-1.002 3.807 3.807 0 0 1-.216-1.32c0-.484.072-.922.216-1.314.148-.392.354-.724.618-.996.268-.272.59-.482.966-.63a3.397 3.397 0 0 1 1.254-.222Zm0 5.202c.512 0 .89-.172 1.134-.516.248-.344.372-.848.372-1.512s-.124-1.17-.372-1.518c-.244-.348-.622-.522-1.134-.522-.52 0-.904.176-1.152.528-.248.348-.372.852-.372 1.512s.124 1.164.372 1.512c.248.344.632.516 1.152.516ZM46.723 14.913V8.757h.87c.152 0 .258.028.318.084.06.056.1.152.12.288l.09.744c.22-.38.478-.68.774-.9.296-.22.628-.33.996-.33.304 0 .556.07.756.21l-.192 1.11c-.012.072-.038.124-.078.156a.278.278 0 0 1-.162.042 1.01 1.01 0 0 1-.246-.042 1.646 1.646 0 0 0-.414-.042c-.308 0-.572.086-.792.258-.22.168-.406.416-.558.744v3.834h-1.482ZM52.96 5.997v8.916h-1.482V5.997h1.482ZM58.732 14.913c-.192 0-.318-.09-.378-.27l-.12-.594a3.68 3.68 0 0 1-.402.39c-.14.116-.292.216-.456.3-.16.084-.334.148-.522.192a2.372 2.372 0 0 1-.6.072c-.336 0-.644-.07-.924-.21a2.098 2.098 0 0 1-.726-.606 3.033 3.033 0 0 1-.468-.99 5.072 5.072 0 0 1-.162-1.344c0-.456.062-.88.186-1.272s.302-.732.534-1.02c.232-.288.51-.512.834-.672a2.384 2.384 0 0 1 1.092-.246 2.103 2.103 0 0 1 1.536.606V5.997h1.482v8.916h-.906Zm-1.974-1.086c.308 0 .57-.064.786-.192.216-.128.42-.31.612-.546v-2.76a1.452 1.452 0 0 0-.552-.432 1.597 1.597 0 0 0-.636-.126c-.224 0-.428.042-.612.126a1.21 1.21 0 0 0-.462.384c-.124.168-.22.384-.288.648-.068.26-.102.568-.102.924 0 .36.028.666.084.918.06.248.144.452.252.612.108.156.24.27.396.342.156.068.33.102.522.102ZM16.331 20.757v6.156H14.85v-6.156h1.481Zm.223-1.794a.844.844 0 0 1-.078.36.963.963 0 0 1-.21.294.995.995 0 0 1-.3.204.963.963 0 0 1-.372.072.948.948 0 0 1-.367-.072 1.018 1.018 0 0 1-.498-.498.963.963 0 0 1 0-.732.995.995 0 0 1 .205-.3.929.929 0 0 1 .293-.198.899.899 0 0 1 .738 0 .912.912 0 0 1 .3.198.943.943 0 0 1 .288.672ZM17.771 26.913v-6.156h.906c.192 0 .318.09.378.27l.102.486a2.934 2.934 0 0 1 .828-.618c.156-.076.322-.134.498-.174.176-.04.368-.06.576-.06.336 0 .634.058.894.174.26.112.476.272.648.48.176.204.308.45.396.738.092.284.138.598.138.942v3.918h-1.482v-3.918c0-.376-.088-.666-.264-.87-.172-.208-.432-.312-.78-.312-.256 0-.496.058-.72.174a2.58 2.58 0 0 0-.636.474v4.452h-1.482ZM34.22 22.575c0 .636-.106 1.22-.318 1.752-.212.532-.51.99-.894 1.374a4 4 0 0 1-1.386.894 4.87 4.87 0 0 1-1.794.318h-3.312v-8.676h3.312a4.79 4.79 0 0 1 1.794.324 4 4 0 0 1 1.386.894c.384.38.682.836.894 1.368.212.532.318 1.116.318 1.752Zm-1.65 0c0-.476-.064-.902-.192-1.278a2.68 2.68 0 0 0-.546-.96 2.332 2.332 0 0 0-.864-.606 2.94 2.94 0 0 0-1.14-.21h-1.686v6.108h1.686c.424 0 .804-.07 1.14-.21.34-.14.628-.34.864-.6a2.75 2.75 0 0 0 .546-.96 4.01 4.01 0 0 0 .192-1.284ZM39.98 26.913h-.665c-.14 0-.25-.02-.33-.06-.08-.044-.14-.13-.18-.258l-.132-.438c-.156.14-.31.264-.462.372a2.804 2.804 0 0 1-.462.264c-.16.072-.33.126-.51.162-.18.036-.38.054-.6.054-.26 0-.5-.034-.72-.102a1.618 1.618 0 0 1-.57-.318 1.448 1.448 0 0 1-.366-.522 1.852 1.852 0 0 1-.132-.726c0-.232.06-.46.18-.684.124-.228.328-.432.612-.612.284-.184.662-.336 1.134-.456.472-.12 1.058-.188 1.758-.204v-.36c0-.412-.088-.716-.264-.912-.172-.2-.424-.3-.756-.3a1.837 1.837 0 0 0-1.02.276c-.116.068-.224.13-.324.186a.664.664 0 0 1-.33.084.429.429 0 0 1-.258-.078.614.614 0 0 1-.174-.192l-.27-.474c.708-.648 1.562-.972 2.562-.972.36 0 .68.06.96.18.284.116.524.28.72.492.196.208.344.458.444.75.104.292.156.612.156.96v3.888Zm-2.88-.924c.153 0 .293-.014.42-.042.129-.028.249-.07.36-.126.117-.056.227-.124.33-.204.109-.084.217-.182.325-.294v-1.038c-.432.02-.794.058-1.086.114-.288.052-.52.12-.696.204a.923.923 0 0 0-.378.294.664.664 0 0 0-.108.366c0 .26.076.446.228.558.156.112.358.168.606.168ZM43.22 27.01c-.532 0-.942-.15-1.23-.45-.288-.305-.432-.723-.432-1.255v-3.438h-.624a.31.31 0 0 1-.21-.078c-.056-.052-.084-.13-.084-.234v-.588l.99-.162.312-1.68a.302.302 0 0 1 .108-.186.365.365 0 0 1 .222-.066h.768v1.938h1.62v1.056h-1.62v3.336c0 .192.048.342.144.45a.488.488 0 0 0 .384.162c.092 0 .168-.01.228-.03.064-.024.118-.048.162-.072.048-.024.09-.046.126-.066a.194.194 0 0 1 .108-.036.16.16 0 0 1 .108.036c.028.02.058.052.09.096l.444.72c-.216.18-.464.316-.744.408a2.77 2.77 0 0 1-.87.138ZM50.423 26.913h-.666c-.14 0-.25-.02-.33-.06-.08-.044-.14-.13-.18-.258l-.132-.438c-.156.14-.31.264-.462.372a2.804 2.804 0 0 1-.462.264c-.16.072-.33.126-.51.162-.18.036-.38.054-.6.054-.26 0-.5-.034-.72-.102a1.618 1.618 0 0 1-.57-.318 1.448 1.448 0 0 1-.366-.522 1.852 1.852 0 0 1-.132-.726c0-.232.06-.46.18-.684.124-.228.328-.432.612-.612.284-.184.662-.336 1.134-.456.472-.12 1.058-.188 1.758-.204v-.36c0-.412-.088-.716-.264-.912-.172-.2-.424-.3-.756-.3a1.837 1.837 0 0 0-1.02.276c-.116.068-.224.13-.324.186a.664.664 0 0 1-.33.084.429.429 0 0 1-.258-.078.614.614 0 0 1-.174-.192l-.27-.474c.708-.648 1.562-.972 2.562-.972.36 0 .68.06.96.18.284.116.524.28.72.492.196.208.344.458.444.75.104.292.156.612.156.96v3.888Zm-2.88-.924c.152 0 .292-.014.42-.042.128-.028.248-.07.36-.126.116-.056.226-.124.33-.204.108-.084.216-.182.324-.294v-1.038c-.432.02-.794.058-1.086.114-.288.052-.52.12-.696.204a.923.923 0 0 0-.378.294.664.664 0 0 0-.108.366c0 .26.076.446.228.558.156.112.358.168.606.168Z"/></svg></g><a id="title" href="https://ourworldindata.org/grapher/employment-by-economic-sector?stackMode=relative" style="font-family:&#x27;Playfair Display&#x27;, Georgia, &#x27;Times New Roman&#x27;, &#x27;Liberation Serif&#x27;, serif" target="_blank" rel="noopener"><text font-size="24.50" font-weight="600" x="16.0" y="39.8" fill="#2d2e2d"><tspan x="16" y="39.765">Employment by economic sector, United States, 1840 to 2015</tspan></text></a><g id="subtitle" class="markdown-text-wrap"><text x="16.0" y="66.0" style="font-size:15px;line-height:1.2" fill="#5b5b5b"><tspan x="16" y="66.0">Number of people employed by economic sector.</tspan></text></g></g><g id="chart-area" style="pointer-events:none"><g id="horizontal-axis" class="HorizontalAxis"><g id="tick-marks"><line id="1840" x1="54.4" y1="511.80000000000007" x2="54.4" y2="517.3000000000001" stroke="#999" stroke-width="1"></line><line id="2015" x1="697.8" y1="511.80000000000007" x2="697.8" y2="517.3000000000001" stroke="#999" stroke-width="1"></line><line id="1860" x1="127.9" y1="511.80000000000007" x2="127.9" y2="517.3000000000001" stroke="#999" stroke-width="1"></line><line id="1880" x1="201.5" y1="511.80000000000007" x2="201.5" y2="517.3000000000001" stroke="#999" stroke-width="1"></line><line id="1900" x1="275" y1="511.80000000000007" x2="275" y2="517.3000000000001" stroke="#999" stroke-width="1"></line><line id="1920" x1="348.5" y1="511.80000000000007" x2="348.5" y2="517.3000000000001" stroke="#999" stroke-width="1"></line><line id="1940" x1="422" y1="511.80000000000007" x2="422" y2="517.3000000000001" stroke="#999" stroke-width="1"></line><line id="1960" x1="495.6" y1="511.80000000000007" x2="495.6" y2="517.3000000000001" stroke="#999" stroke-width="1"></line><line id="1980" x1="569.1" y1="511.80000000000007" x2="569.1" y2="517.3000000000001" stroke="#999" stroke-width="1"></line><line id="2000" x1="642.6" y1="511.80000000000007" x2="642.6" y2="517.3000000000001" stroke="#999" stroke-width="1"></line></g><g id="tick-labels"><text x="54.410000000000004" y="530.3000000000001" fill="#5b5b5b" text-anchor="start" font-size="13">1840</text><text x="697.75" y="530.3000000000001" fill="#5b5b5b" text-anchor="end" font-size="13">2015</text><text x="127.9" y="530.3000000000001" fill="#5b5b5b" text-anchor="middle" font-size="13">1860</text><text x="201.5" y="530.3000000000001" fill="#5b5b5b" text-anchor="middle" font-size="13">1880</text><text x="275" y="530.3000000000001" fill="#5b5b5b" text-anchor="middle" font-size="13">1900</text><text x="348.5" y="530.3000000000001" fill="#5b5b5b" text-anchor="middle" font-size="13">1920</text><text x="422" y="530.3000000000001" fill="#5b5b5b" text-anchor="middle" font-size="13">1940</text><text x="495.6" y="530.3000000000001" fill="#5b5b5b" text-anchor="middle" font-size="13">1960</text><text x="569.1" y="530.3000000000001" fill="#5b5b5b" text-anchor="middle" font-size="13">1980</text><text x="642.6" y="530.3000000000001" fill="#5b5b5b" text-anchor="middle" font-size="13">2000</text></g></g><g id="vertical-axis" class="VerticalAxis"><g id="tick-labels"><text x="49.41" y="512.3" dy=".32em" text-anchor="end" fill="#5b5b5b" font-size="13">0%</text><text x="49.41" y="428.1" dy=".32em" text-anchor="end" fill="#5b5b5b" font-size="13">20%</text><text x="49.41" y="343.9" dy=".32em" text-anchor="end" fill="#5b5b5b" font-size="13">40%</text><text x="49.41" y="259.8" dy=".32em" text-anchor="end" fill="#5b5b5b" font-size="13">60%</text><text x="49.41" y="175.6" dy=".32em" text-anchor="end" fill="#5b5b5b" font-size="13">80%</text><text x="49.41" y="91.4" dy=".32em" text-anchor="end" fill="#5b5b5b" font-size="13">100%</text></g></g><g id="horizontal-grid-lines" class="AxisGridLines horizontalLines"><line id="0%" x1="54.41" y1="512.3" x2="697.75" y2="512.3" stroke="#999"></line><line id="20%" x1="54.41" y1="428.1" x2="697.75" y2="428.1" stroke="#ddd" stroke-dasharray="4,4"></line><line id="40%" x1="54.41" y1="343.9" x2="697.75" y2="343.9" stroke="#ddd" stroke-dasharray="4,4"></line><line id="60%" x1="54.41" y1="259.8" x2="697.75" y2="259.8" stroke="#ddd" stroke-dasharray="4,4"></line><line id="80%" x1="54.41" y1="175.6" x2="697.75" y2="175.6" stroke="#ddd" stroke-dasharray="4,4"></line><line id="100%" x1="54.41" y1="91.4" x2="697.75" y2="91.4" stroke="#ddd" stroke-dasharray="4,4"></line></g><g id="line-labels" class="LineLabels"><g id="text-annotations"></g><g id="text-labels"><text id="label__People-employed-in-services" font-size="13.00" font-weight="400" x="701.8" y="264.9" fill="#d96855" opacity="1" text-anchor="start"><tspan x="701.75" y="264.85999999999996">People employed in</tspan><tspan x="701.75" y="279.15999999999997">services</tspan></text><text id="label__People-employed-in-manufacturing" font-size="13.00" font-weight="400" x="701.8" y="471.9" fill="#286bbb" opacity="1" text-anchor="start"><tspan x="701.75" y="471.85999999999996">People employed in</tspan><tspan x="701.75" y="486.15999999999997">manufacturing</tspan></text><text id="label__People-employed-in-agriculture" font-size="13.00" font-weight="400" x="701.8" y="506.6" fill="#578145" opacity="1" text-anchor="start"><tspan x="701.75" y="506.55999999999995">People employed in</tspan><tspan x="701.75" y="520.8599999999999">agriculture</tspan></text></g></g><g class="Areas" id="stacked-areas"><g id="areas"><path id="People-employed-in-agriculture" class="People-employed-in-agriculture-area" stroke-linecap="round" d="M54.4 246.8L91.2 281.7L127.9 289.5L164.7 291.3L201.5 296.4L238.2 332.5L275 343.2L311.7 380.1L348.5 403.2L381.6 432.7L385.3 430.6L388.9 424.2L392.6 417.2L396.3 417.7L400 424.5L403.7 426.4L407.3 433.2L411 436.8L414.7 436.5L418.4 441L422 445.8L425.7 452.4L429.4 458.5L433.1 464.6L436.7 466.9L440.4 466.8L444.1 462.7L447.8 463.4L451.4 464.4L455.1 464.6L458.8 466.3L462.5 471.6L466.1 473.3L469.8 474.9L473.5 473.7L477.2 475.5L480.9 478L484.5 479.7L488.2 479.7L491.9 481.4L495.6 483L499.2 483.4L502.9 484.9L506.6 486.6L510.3 488.4L513.9 490L517.6 492.6L521.3 493.6L525 494.2L528.6 495.3L532.3 495.5L536 495.8L539.7 495.9L543.3 496.2L547 496.1L550.7 496.1L554.4 496.4L558.1 497.5L561.7 498L565.4 498.3L569.1 497.9L572.8 498.1L576.4 498.4L580.1 498.4L583.8 499.4L587.5 500.4L591.1 500.9L594.8 501.5L598.5 502L602.2 502.5L605.8 502.9L609.5 503L613.2 502.9L616.9 503.1L620.5 503.3L624.2 503.5L627.9 503.7L631.6 503.9L635.3 504.2L638.9 504.4L642.6 504.7L646.3 505.2L650 505L653.6 505.2L657.3 505.4L661 505.7L664.7 505.8L668.3 506.3L672 505.9L675.7 505.5L679.4 505.1L683 505L686.7 505.4L690.4 505.8L694.1 505.8L697.8 505.4L697.8 512.3000000000001L54.4 512.3000000000001" fill="#578145" fill-opacity="0.8"></path><path id="People-employed-in-manufacturing" class="People-employed-in-manufacturing-area" stroke-linecap="round" d="M54.4 185.7L91.2 194.4L127.9 205.2L164.7 179.6L201.5 188.2L238.2 218.1L275 224.5L311.7 252.7L348.5 265.6L381.6 304.6L385.3 309.2L388.9 311.9L392.6 313.9L396.3 312.5L400 313.8L403.7 313.5L407.3 318.1L411 315.7L414.7 325.5L418.4 324L422 323.8L425.7 318.5L429.4 316.9L433.1 326.6L436.7 337.4L440.4 346.5L444.1 328.7L447.8 321L451.4 317.7L455.1 324.8L458.8 323.3L462.5 327.9L466.1 330.8L469.8 330L473.5 334.3L477.2 334.9L480.9 337.1L484.5 340L488.2 346.9L491.9 345.9L495.6 348.9L499.2 352.1L502.9 352.1L506.6 353.8L510.3 355.9L513.9 355.4L517.6 356.4L521.3 359.7L525 361.2L528.6 362.3L532.3 366.7L536 370.5L539.7 369.8L543.3 368.3L547 370.3L550.7 378.8L554.4 377.8L558.1 377.6L561.7 377.1L565.4 377.3L569.1 381L572.8 382.9L576.4 389.1L580.1 391.7L583.8 391.2L587.5 394.1L591.1 397L594.8 399.8L598.5 400.8L602.2 403.4L605.8 405.8L609.5 409.1L613.2 411L616.9 412L620.5 412.3L624.2 413.2L627.9 414.2L631.6 414.8L635.3 415.5L638.9 417L642.6 418.3L646.3 425L650 428.4L653.6 430.5L657.3 430.6L661 431.4L664.7 431.6L668.3 433.5L672 435.6L675.7 441.3L679.4 442.9L683 442.9L686.7 443.4L690.4 443.7L694.1 443.6L697.8 442.9L697.8 505.4L694.1 505.8L690.4 505.8L686.7 505.4L683 505L679.4 505.1L675.7 505.5L672 505.9L668.3 506.3L664.7 505.8L661 505.7L657.3 505.4L653.6 505.2L650 505L646.3 505.2L642.6 504.7L638.9 504.4L635.3 504.2L631.6 503.9L627.9 503.7L624.2 503.5L620.5 503.3L616.9 503.1L613.2 502.9L609.5 503L605.8 502.9L602.2 502.5L598.5 502L594.8 501.5L591.1 500.9L587.5 500.4L583.8 499.4L580.1 498.4L576.4 498.4L572.8 498.1L569.1 497.9L565.4 498.3L561.7 498L558.1 497.5L554.4 496.4L550.7 496.1L547 496.1L543.3 496.2L539.7 495.9L536 495.8L532.3 495.5L528.6 495.3L525 494.2L521.3 493.6L517.6 492.6L513.9 490L510.3 488.4L506.6 486.6L502.9 484.9L499.2 483.4L495.6 483L491.9 481.4L488.2 479.7L484.5 479.7L480.9 478L477.2 475.5L473.5 473.7L469.8 474.9L466.1 473.3L462.5 471.6L458.8 466.3L455.1 464.6L451.4 464.4L447.8 463.4L444.1 462.7L440.4 466.8L436.7 466.9L433.1 464.6L429.4 458.5L425.7 452.4L422 445.8L418.4 441L414.7 436.5L411 436.8L407.3 433.2L403.7 426.4L400 424.5L396.3 417.7L392.6 417.2L388.9 424.2L385.3 430.6L381.6 432.7L348.5 403.2L311.7 380.1L275 343.2L238.2 332.5L201.5 296.4L164.7 291.3L127.9 289.5L91.2 281.7L54.4 246.8" fill="#286bbb" fill-opacity="0.8"></path><path id="People-employed-in-services" class="People-employed-in-services-area" stroke-linecap="round" d="M54.4 91.4L91.2 91.4L127.9 91.4L164.7 91.4L201.5 91.4L238.2 91.4L275 91.4L311.7 91.4L348.5 91.4L381.6 91.4L385.3 91.4L388.9 91.4L392.6 91.4L396.3 91.4L400 91.4L403.7 91.4L407.3 91.4L411 91.4L414.7 91.4L418.4 91.4L422 91.4L425.7 91.4L429.4 91.4L433.1 91.4L436.7 91.4L440.4 91.4L444.1 91.4L447.8 91.4L451.4 91.4L455.1 91.4L458.8 91.4L462.5 91.4L466.1 91.4L469.8 91.4L473.5 91.4L477.2 91.4L480.9 91.4L484.5 91.4L488.2 91.4L491.9 91.4L495.6 91.4L499.2 91.4L502.9 91.4L506.6 91.4L510.3 91.4L513.9 91.4L517.6 91.4L521.3 91.4L525 91.4L528.6 91.4L532.3 91.4L536 91.4L539.7 91.4L543.3 91.4L547 91.4L550.7 91.4L554.4 91.4L558.1 91.4L561.7 91.4L565.4 91.4L569.1 91.4L572.8 91.4L576.4 91.4L580.1 91.4L583.8 91.4L587.5 91.4L591.1 91.4L594.8 91.4L598.5 91.4L602.2 91.4L605.8 91.4L609.5 91.4L613.2 91.4L616.9 91.4L620.5 91.4L624.2 91.4L627.9 91.4L631.6 91.4L635.3 91.4L638.9 91.4L642.6 91.4L646.3 91.4L650 91.4L653.6 91.4L657.3 91.4L661 91.4L664.7 91.4L668.3 91.4L672 91.4L675.7 91.4L679.4 91.4L683 91.4L686.7 91.4L690.4 91.4L694.1 91.4L697.8 91.4L697.8 442.9L694.1 443.6L690.4 443.7L686.7 443.4L683 442.9L679.4 442.9L675.7 441.3L672 435.6L668.3 433.5L664.7 431.6L661 431.4L657.3 430.6L653.6 430.5L650 428.4L646.3 425L642.6 418.3L638.9 417L635.3 415.5L631.6 414.8L627.9 414.2L624.2 413.2L620.5 412.3L616.9 412L613.2 411L609.5 409.1L605.8 405.8L602.2 403.4L598.5 400.8L594.8 399.8L591.1 397L587.5 394.1L583.8 391.2L580.1 391.7L576.4 389.1L572.8 382.9L569.1 381L565.4 377.3L561.7 377.1L558.1 377.6L554.4 377.8L550.7 378.8L547 370.3L543.3 368.3L539.7 369.8L536 370.5L532.3 366.7L528.6 362.3L525 361.2L521.3 359.7L517.6 356.4L513.9 355.4L510.3 355.9L506.6 353.8L502.9 352.1L499.2 352.1L495.6 348.9L491.9 345.9L488.2 346.9L484.5 340L480.9 337.1L477.2 334.9L473.5 334.3L469.8 330L466.1 330.8L462.5 327.9L458.8 323.3L455.1 324.8L451.4 317.7L447.8 321L444.1 328.7L440.4 346.5L436.7 337.4L433.1 326.6L429.4 316.9L425.7 318.5L422 323.8L418.4 324L414.7 325.5L411 315.7L407.3 318.1L403.7 313.5L400 313.8L396.3 312.5L392.6 313.9L388.9 311.9L385.3 309.2L381.6 304.6L348.5 265.6L311.7 252.7L275 224.5L238.2 218.1L201.5 188.2L164.7 179.6L127.9 205.2L91.2 194.4L54.4 185.7" fill="#e56e5a" fill-opacity="0.8"></path></g><g id="borders"><path id="People-employed-in-agriculture" class="People-employed-in-agriculture-border" stroke-linecap="round" d="M54.4 246.8L91.2 281.7L127.9 289.5L164.7 291.3L201.5 296.4L238.2 332.5L275 343.2L311.7 380.1L348.5 403.2L381.6 432.7L385.3 430.6L388.9 424.2L392.6 417.2L396.3 417.7L400 424.5L403.7 426.4L407.3 433.2L411 436.8L414.7 436.5L418.4 441L422 445.8L425.7 452.4L429.4 458.5L433.1 464.6L436.7 466.9L440.4 466.8L444.1 462.7L447.8 463.4L451.4 464.4L455.1 464.6L458.8 466.3L462.5 471.6L466.1 473.3L469.8 474.9L473.5 473.7L477.2 475.5L480.9 478L484.5 479.7L488.2 479.7L491.9 481.4L495.6 483L499.2 483.4L502.9 484.9L506.6 486.6L510.3 488.4L513.9 490L517.6 492.6L521.3 493.6L525 494.2L528.6 495.3L532.3 495.5L536 495.8L539.7 495.9L543.3 496.2L547 496.1L550.7 496.1L554.4 496.4L558.1 497.5L561.7 498L565.4 498.3L569.1 497.9L572.8 498.1L576.4 498.4L580.1 498.4L583.8 499.4L587.5 500.4L591.1 500.9L594.8 501.5L598.5 502L602.2 502.5L605.8 502.9L609.5 503L613.2 502.9L616.9 503.1L620.5 503.3L624.2 503.5L627.9 503.7L631.6 503.9L635.3 504.2L638.9 504.4L642.6 504.7L646.3 505.2L650 505L653.6 505.2L657.3 505.4L661 505.7L664.7 505.8L668.3 506.3L672 505.9L675.7 505.5L679.4 505.1L683 505L686.7 505.4L690.4 505.8L694.1 505.8L697.8 505.4" stroke="rgb(73, 108, 58)" stroke-opacity="0.7" stroke-width="0.5" fill="none"></path><path id="People-employed-in-manufacturing" class="People-employed-in-manufacturing-border" stroke-linecap="round" d="M54.4 185.7L91.2 194.4L127.9 205.2L164.7 179.6L201.5 188.2L238.2 218.1L275 224.5L311.7 252.7L348.5 265.6L381.6 304.6L385.3 309.2L388.9 311.9L392.6 313.9L396.3 312.5L400 313.8L403.7 313.5L407.3 318.1L411 315.7L414.7 325.5L418.4 324L422 323.8L425.7 318.5L429.4 316.9L433.1 326.6L436.7 337.4L440.4 346.5L444.1 328.7L447.8 321L451.4 317.7L455.1 324.8L458.8 323.3L462.5 327.9L466.1 330.8L469.8 330L473.5 334.3L477.2 334.9L480.9 337.1L484.5 340L488.2 346.9L491.9 345.9L495.6 348.9L499.2 352.1L502.9 352.1L506.6 353.8L510.3 355.9L513.9 355.4L517.6 356.4L521.3 359.7L525 361.2L528.6 362.3L532.3 366.7L536 370.5L539.7 369.8L543.3 368.3L547 370.3L550.7 378.8L554.4 377.8L558.1 377.6L561.7 377.1L565.4 377.3L569.1 381L572.8 382.9L576.4 389.1L580.1 391.7L583.8 391.2L587.5 394.1L591.1 397L594.8 399.8L598.5 400.8L602.2 403.4L605.8 405.8L609.5 409.1L613.2 411L616.9 412L620.5 412.3L624.2 413.2L627.9 414.2L631.6 414.8L635.3 415.5L638.9 417L642.6 418.3L646.3 425L650 428.4L653.6 430.5L657.3 430.6L661 431.4L664.7 431.6L668.3 433.5L672 435.6L675.7 441.3L679.4 442.9L683 442.9L686.7 443.4L690.4 443.7L694.1 443.6L697.8 442.9" stroke="rgb(33, 90, 156)" stroke-opacity="0.7" stroke-width="0.5" fill="none"></path><path id="People-employed-in-services" class="People-employed-in-services-border" stroke-linecap="round" d="M54.4 91.4L91.2 91.4L127.9 91.4L164.7 91.4L201.5 91.4L238.2 91.4L275 91.4L311.7 91.4L348.5 91.4L381.6 91.4L385.3 91.4L388.9 91.4L392.6 91.4L396.3 91.4L400 91.4L403.7 91.4L407.3 91.4L411 91.4L414.7 91.4L418.4 91.4L422 91.4L425.7 91.4L429.4 91.4L433.1 91.4L436.7 91.4L440.4 91.4L444.1 91.4L447.8 91.4L451.4 91.4L455.1 91.4L458.8 91.4L462.5 91.4L466.1 91.4L469.8 91.4L473.5 91.4L477.2 91.4L480.9 91.4L484.5 91.4L488.2 91.4L491.9 91.4L495.6 91.4L499.2 91.4L502.9 91.4L506.6 91.4L510.3 91.4L513.9 91.4L517.6 91.4L521.3 91.4L525 91.4L528.6 91.4L532.3 91.4L536 91.4L539.7 91.4L543.3 91.4L547 91.4L550.7 91.4L554.4 91.4L558.1 91.4L561.7 91.4L565.4 91.4L569.1 91.4L572.8 91.4L576.4 91.4L580.1 91.4L583.8 91.4L587.5 91.4L591.1 91.4L594.8 91.4L598.5 91.4L602.2 91.4L605.8 91.4L609.5 91.4L613.2 91.4L616.9 91.4L620.5 91.4L624.2 91.4L627.9 91.4L631.6 91.4L635.3 91.4L638.9 91.4L642.6 91.4L646.3 91.4L650 91.4L653.6 91.4L657.3 91.4L661 91.4L664.7 91.4L668.3 91.4L672 91.4L675.7 91.4L679.4 91.4L683 91.4L686.7 91.4L690.4 91.4L694.1 91.4L697.8 91.4" stroke="rgb(192, 92, 75)" stroke-opacity="0.7" stroke-width="0.5" fill="none"></path></g></g></g><g id="footer" class="SourcesFooter" style="fill:#858585"><g id="sources" class="markdown-text-wrap"><text x="16.0" y="560.9" style="font-size:13px;line-height:1.2"><tspan x="16" y="560.9"><tspan style="font-weight:700">Data source:</tspan> Our World In Data based on Herrendorf et al. (2014)</tspan></text></g><text id="origin-url" font-size="13.00" x="16.0" y="581.0"><tspan x="16" y="581.01"><a target="_blank" style="fill: #858585;" href="https://ourworldindata.org/structural-transformation-and-deindustrialization-evidence-from-todays-rich-countries">OurWorldinData.org/structural-transformation-and-deindustrialization-evidence-from-todays-rich-countries</a> | <a target="_blank" style="fill: #858585;" href="https://creativecommons.org/licenses/by/4.0/">CC BY</a></tspan></text></g></svg>